<svg xmlns="http://www.w3.org/2000/svg" viewBox="0 0 1200 675" role="img" aria-labelledby="title desc">
  <title id="title">Labyrinthia achievements screenshot</title>
  <desc id="desc">An achievements panel lists progress toward the 1000 achievement collection.</desc>
  <defs>
    <linearGradient id="bg" x2="1" y2="1"><stop stop-color="#070817"/><stop offset="1" stop-color="#28152f"/></linearGradient>
    <linearGradient id="gold"><stop stop-color="#ffc857"/><stop offset="1" stop-color="#ff9f43"/></linearGradient>
  </defs>
  <rect width="1200" height="675" rx="30" fill="url(#bg)"/>
  <g opacity=".35" fill="none" stroke="#4a2a59" stroke-width="18"><path d="M80 105h170V65h160v100h140M60 540h190v-70h165v95h165"/></g>
  <rect x="196" y="42" width="808" height="591" rx="29" fill="#0b1230" stroke="#ffc857" stroke-opacity=".55" stroke-width="2"/>
  <g font-family="Inter,Arial,sans-serif">
    <text x="246" y="104" font-size="17" font-weight="900" letter-spacing="3" fill="#ffc857">COLLECTION</text><text x="246" y="157" font-size="38" font-weight="900" fill="#f3f6ff">Achievements</text><text x="247" y="192" font-size="17" fill="#aeb9df">18 unlocked · 982 still waiting in the maze</text>
    <rect x="246" y="228" width="708" height="100" rx="20" fill="#121b3b" stroke="#2f417b"/>
    <circle cx="296" cy="278" r="27" fill="url(#gold)"/><path d="M296 256l7 15 16 2-12 11 4 16-15-8-15 8 4-16-12-11 16-2z" fill="#271b32"/>
    <text x="345" y="270" font-size="19" font-weight="900" fill="#f3f6ff">FIRST LIGHT</text><text x="345" y="298" font-size="16" fill="#aeb9df">Complete your first level</text><text x="856" y="280" font-size="17" font-weight="900" fill="#36e0c5">DONE ✓</text>
    <rect x="246" y="350" width="708" height="100" rx="20" fill="#101834" stroke="#2f417b"/>
    <circle cx="296" cy="400" r="27" fill="#7c6cff"/><path d="M296 376l10 21 23 3-17 16 5 23-21-11-21 11 5-23-17-16 23-3z" fill="#f3f6ff"/>
    <text x="345" y="392" font-size="19" font-weight="900" fill="#f3f6ff">SPEED RUNNER</text><text x="345" y="420" font-size="16" fill="#aeb9df">Escape a maze under 60 seconds</text><text x="850" y="402" font-size="17" font-weight="900" fill="#ffc857">74%</text>
    <rect x="246" y="472" width="708" height="100" rx="20" fill="#0f1733" stroke="#2f417b"/><circle cx="296" cy="522" r="27" fill="#21325e"/><path d="M296 500v44M274 522h44" stroke="#91a1d5" stroke-width="7" stroke-linecap="round"/><text x="345" y="514" font-size="19" font-weight="900" fill="#f3f6ff">TILT MASTER</text><text x="345" y="542" font-size="16" fill="#aeb9df">Use motion controls in 10 levels</text><text x="857" y="524" font-size="17" font-weight="900" fill="#aeb9df">LOCKED</text>
  </g>
  <rect x=".75" y=".75" width="1198.5" height="673.5" rx="29" fill="none" stroke="#ffc857" stroke-opacity=".45" stroke-width="1.5"/>
</svg>
